<?xml version="1.0" encoding="UTF-8"?>
<svg xmlns="http://www.w3.org/2000/svg" xmlns:xlink="http://www.w3.org/1999/xlink" width="22px" height="22px" viewBox="0 0 22 22" version="1.1">
<g id="surface1">
<path style=" stroke:none;fill-rule:nonzero;fill:rgb(68.627451%,72.54902%,82.352941%);fill-opacity:1;" d="M 21.347656 0.167969 L 16.859375 0.167969 C 16.429688 0.167969 16.214844 0.6875 16.519531 0.992188 L 17.914062 2.386719 L 9.773438 10.527344 L 6.921875 7.675781 L 6.15625 6.914062 C 5.898438 6.65625 5.480469 6.65625 5.222656 6.914062 L 0.363281 11.773438 C 0.105469 12.03125 0.105469 12.449219 0.363281 12.707031 L 1.125 13.472656 C 1.386719 13.730469 1.804688 13.730469 2.0625 13.472656 L 5.691406 9.84375 L 9.296875 13.453125 C 9.558594 13.710938 9.976562 13.710938 10.234375 13.453125 L 10.625 13.066406 C 10.644531 13.050781 10.664062 13.035156 10.683594 13.015625 L 19.613281 4.085938 L 21.007812 5.480469 C 21.3125 5.785156 21.832031 5.570312 21.832031 5.140625 L 21.832031 0.652344 C 21.832031 0.386719 21.613281 0.167969 21.347656 0.167969 Z M 21.347656 0.167969 "/>
<path style=" stroke:none;fill-rule:nonzero;fill:rgb(47.058824%,82.352941%,74.509804%);fill-opacity:1;" d="M 15.964844 9.265625 L 15.964844 21.167969 C 15.964844 21.535156 16.261719 21.832031 16.625 21.832031 L 18.738281 21.832031 C 19.105469 21.832031 19.402344 21.535156 19.402344 21.167969 L 19.402344 5.828125 Z M 15.964844 9.265625 "/>
<path style=" stroke:none;fill-rule:nonzero;fill:rgb(64.705882%,84.313725%,43.137255%);fill-opacity:1;" d="M 11.507812 13.722656 L 11.507812 21.167969 C 11.507812 21.535156 11.804688 21.832031 12.171875 21.832031 L 14.285156 21.832031 C 14.648438 21.832031 14.945312 21.535156 14.945312 21.167969 L 14.945312 10.285156 Z M 11.507812 13.722656 "/>
<path style=" stroke:none;fill-rule:nonzero;fill:rgb(100%,76.470588%,43.137255%);fill-opacity:1;" d="M 9.765625 14.730469 C 9.300781 14.730469 8.863281 14.550781 8.53125 14.21875 L 7.054688 12.742188 L 7.054688 21.167969 C 7.054688 21.535156 7.351562 21.832031 7.714844 21.832031 L 9.828125 21.832031 C 10.195312 21.832031 10.492188 21.535156 10.492188 21.167969 L 10.492188 14.574219 C 10.265625 14.675781 10.019531 14.730469 9.765625 14.730469 Z M 9.765625 14.730469 "/>
<path style=" stroke:none;fill-rule:nonzero;fill:rgb(82.352941%,33.333333%,35.294118%);fill-opacity:1;" d="M 5.691406 11.378906 L 2.828125 14.238281 C 2.757812 14.308594 2.679688 14.375 2.597656 14.429688 L 2.597656 21.167969 C 2.597656 21.535156 2.894531 21.832031 3.261719 21.832031 L 5.375 21.832031 C 5.738281 21.832031 6.035156 21.535156 6.035156 21.167969 L 6.035156 11.722656 Z M 5.691406 11.378906 "/>
</g>
</svg>
