<?xml version="1.0" encoding="UTF-8"?>
<svg xmlns="http://www.w3.org/2000/svg" xmlns:xlink="http://www.w3.org/1999/xlink" width="150px" height="200px" viewBox="0 0 150 200" version="1.1">
<g id="surface1">
<path style=" stroke:none;fill-rule:nonzero;fill:rgb(68.627451%,72.54902%,82.352941%);fill-opacity:1;" d="M 145.558594 1.53125 L 114.949219 1.53125 C 112.011719 1.53125 110.550781 6.257812 112.621094 9.03125 L 122.132812 21.710938 L 66.628906 95.710938 L 41.980469 62.84375 C 40.222656 60.5 37.363281 60.5 35.601562 62.84375 L 2.472656 107.023438 C 0.707031 109.375 0.707031 113.179688 2.472656 115.539062 L 7.683594 122.476562 C 9.445312 124.820312 12.300781 124.820312 14.0625 122.476562 L 38.792969 89.507812 L 63.398438 122.3125 C 65.160156 124.664062 68.019531 124.664062 69.777344 122.3125 L 72.425781 118.78125 C 72.566406 118.640625 72.707031 118.507812 72.839844 118.335938 L 133.722656 37.15625 L 143.230469 49.84375 C 145.308594 52.601562 148.851562 50.648438 148.851562 46.742188 L 148.851562 5.929688 C 148.851562 3.507812 147.375 1.53125 145.558594 1.53125 Z M 145.558594 1.53125 "/>
<path style=" stroke:none;fill-rule:nonzero;fill:rgb(47.058824%,82.352941%,74.509804%);fill-opacity:1;" d="M 108.847656 84.242188 L 108.847656 192.445312 C 108.847656 195.773438 110.871094 198.46875 113.363281 198.46875 L 127.777344 198.46875 C 130.265625 198.46875 132.285156 195.773438 132.285156 192.445312 L 132.285156 52.992188 Z M 108.847656 84.242188 "/>
<path style=" stroke:none;fill-rule:nonzero;fill:rgb(64.705882%,84.313725%,43.137255%);fill-opacity:1;" d="M 78.46875 124.757812 L 78.46875 192.445312 C 78.46875 195.773438 80.488281 198.46875 82.988281 198.46875 L 97.394531 198.46875 C 99.890625 198.46875 101.90625 195.773438 101.90625 192.445312 L 101.90625 93.507812 Z M 78.46875 124.757812 "/>
<path style=" stroke:none;fill-rule:nonzero;fill:rgb(100%,76.470588%,43.137255%);fill-opacity:1;" d="M 66.589844 133.914062 C 63.410156 133.914062 60.425781 132.273438 58.175781 129.273438 L 48.09375 115.828125 L 48.09375 192.445312 C 48.09375 195.773438 50.109375 198.46875 52.605469 198.46875 L 67.011719 198.46875 C 69.511719 198.46875 71.53125 195.773438 71.53125 192.445312 L 71.53125 132.476562 C 69.996094 133.414062 68.324219 133.914062 66.589844 133.914062 Z M 66.589844 133.914062 "/>
<path style=" stroke:none;fill-rule:nonzero;fill:rgb(82.352941%,33.333333%,35.294118%);fill-opacity:1;" d="M 38.792969 103.429688 L 19.289062 129.445312 C 18.796875 130.085938 18.269531 130.671875 17.714844 131.179688 L 17.714844 192.445312 C 17.714844 195.773438 19.734375 198.46875 22.222656 198.46875 L 36.636719 198.46875 C 39.128906 198.46875 41.152344 195.773438 41.152344 192.445312 L 41.152344 106.570312 Z M 38.792969 103.429688 "/>
</g>
</svg>
