<?xml version="1.0" encoding="UTF-8"?>
<svg xmlns="http://www.w3.org/2000/svg" xmlns:xlink="http://www.w3.org/1999/xlink" width="20px" height="20px" viewBox="0 0 20 20" version="1.1">
<g id="surface1">
<path style=" stroke:none;fill-rule:nonzero;fill:rgb(29.019608%,79.607843%,26.666667%);fill-opacity:1;" d="M 4.542969 19.847656 C 3.371094 19.847656 2.265625 19.390625 1.441406 18.558594 C 0.609375 17.734375 0.152344 16.628906 0.152344 15.457031 C 0.152344 14.285156 0.609375 13.179688 1.441406 12.355469 L 5.910156 7.886719 C 7.617188 6.171875 10.402344 6.171875 12.113281 7.886719 C 12.539062 8.316406 12.539062 9.007812 12.113281 9.429688 C 11.683594 9.859375 10.992188 9.859375 10.570312 9.429688 C 9.710938 8.578125 8.316406 8.570312 7.457031 9.429688 L 2.984375 13.902344 C 2.125 14.761719 2.125 16.15625 2.984375 17.015625 C 3.402344 17.425781 3.957031 17.65625 4.542969 17.65625 C 5.128906 17.65625 5.679688 17.425781 6.097656 17.015625 L 8.316406 14.800781 C 8.738281 14.375 9.429688 14.375 9.859375 14.800781 C 10.285156 15.230469 10.289062 15.921875 9.859375 16.34375 L 7.644531 18.558594 C 6.820312 19.390625 5.714844 19.847656 4.542969 19.847656 Z M 4.542969 19.847656 "/>
<path style=" stroke:none;fill-rule:nonzero;fill:rgb(15.686275%,60%,13.333333%);fill-opacity:1;" d="M 10.988281 13.398438 C 9.816406 13.398438 8.714844 12.941406 7.886719 12.113281 C 7.457031 11.683594 7.457031 10.992188 7.886719 10.570312 C 8.316406 10.140625 9.007812 10.140625 9.429688 10.570312 C 9.847656 10.980469 10.402344 11.210938 10.988281 11.210938 C 11.578125 11.210938 12.132812 10.980469 12.542969 10.570312 L 17.015625 6.097656 C 17.425781 5.679688 17.65625 5.128906 17.65625 4.542969 C 17.65625 3.957031 17.425781 3.402344 17.015625 2.984375 C 16.15625 2.125 14.761719 2.125 13.902344 2.984375 L 11.683594 5.199219 C 11.261719 5.625 10.570312 5.625 10.140625 5.199219 C 9.710938 4.769531 9.710938 4.078125 10.140625 3.65625 L 12.355469 1.441406 C 14.0625 -0.273438 16.847656 -0.273438 18.558594 1.441406 C 19.390625 2.265625 19.847656 3.371094 19.847656 4.542969 C 19.847656 5.714844 19.390625 6.820312 18.558594 7.644531 L 14.089844 12.113281 C 13.265625 12.941406 12.160156 13.398438 10.988281 13.398438 Z M 10.988281 13.398438 "/>
</g>
</svg>
