<?xml version="1.0" encoding="UTF-8"?>
<svg xmlns="http://www.w3.org/2000/svg" xmlns:xlink="http://www.w3.org/1999/xlink" width="20px" height="20px" viewBox="0 0 20 20" version="1.1">
<g id="surface1">
<path style=" stroke:none;fill-rule:nonzero;fill:rgb(0%,86.666667%,6.27451%);fill-opacity:1;" d="M 9.585938 13.890625 C 9.582031 13.890625 9.570312 13.890625 9.558594 13.890625 C 9.257812 13.882812 8.972656 13.75 8.773438 13.527344 L 5.925781 10.339844 C 5.523438 9.886719 5.5625 9.195312 6.011719 8.792969 C 6.460938 8.394531 7.152344 8.433594 7.554688 8.878906 L 9.632812 11.207031 L 16.488281 4.347656 C 16.917969 3.917969 17.613281 3.917969 18.042969 4.347656 C 18.464844 4.769531 18.464844 5.464844 18.042969 5.894531 L 10.363281 13.570312 C 10.15625 13.777344 9.878906 13.890625 9.585938 13.890625 Z M 9.585938 13.890625 "/>
<path style=" stroke:none;fill-rule:nonzero;fill:rgb(0%,86.666667%,6.27451%);fill-opacity:1;" d="M 10 19.847656 C 4.570312 19.847656 0.152344 15.429688 0.152344 10 C 0.152344 4.570312 4.570312 0.152344 10 0.152344 C 11.800781 0.152344 13.566406 0.640625 15.09375 1.574219 C 15.613281 1.886719 15.777344 2.5625 15.464844 3.074219 C 15.152344 3.59375 14.480469 3.761719 13.960938 3.441406 C 12.773438 2.722656 11.402344 2.34375 10 2.34375 C 5.777344 2.34375 2.34375 5.777344 2.34375 10 C 2.34375 14.222656 5.777344 17.65625 10 17.65625 C 14.222656 17.65625 17.65625 14.222656 17.65625 10 C 17.65625 9.675781 17.640625 9.347656 17.59375 9.023438 C 17.523438 8.425781 17.945312 7.878906 18.542969 7.800781 C 19.144531 7.722656 19.691406 8.152344 19.765625 8.75 C 19.820312 9.164062 19.847656 9.582031 19.847656 10 C 19.847656 15.429688 15.429688 19.847656 10 19.847656 Z M 10 19.847656 "/>
</g>
</svg>
