<?xml version="1.0" encoding="UTF-8"?>
<svg xmlns="http://www.w3.org/2000/svg" xmlns:xlink="http://www.w3.org/1999/xlink" width="20px" height="20px" viewBox="0 0 20 20" version="1.1">
<g id="surface1">
<path style=" stroke:none;fill-rule:nonzero;fill:rgb(0%,31.372549%,75.294118%);fill-opacity:1;" d="M 7.992188 11.96875 L 1.136719 11.96875 C 0.597656 11.96875 0.152344 11.527344 0.152344 10.980469 L 0.152344 1.136719 C 0.152344 0.597656 0.597656 0.152344 1.136719 0.152344 L 7.992188 0.152344 C 8.53125 0.152344 8.980469 0.597656 8.980469 1.136719 L 8.980469 10.980469 C 8.980469 11.527344 8.53125 11.96875 7.992188 11.96875 Z M 7.992188 11.96875 "/>
<path style=" stroke:none;fill-rule:nonzero;fill:rgb(0%,42.745098%,100%);fill-opacity:1;" d="M 7.992188 19.847656 L 1.136719 19.847656 C 0.597656 19.847656 0.152344 19.402344 0.152344 18.855469 L 0.152344 15.414062 C 0.152344 14.871094 0.597656 14.425781 1.136719 14.425781 L 7.992188 14.425781 C 8.53125 14.425781 8.980469 14.867188 8.980469 15.414062 L 8.980469 18.855469 C 8.980469 19.402344 8.53125 19.847656 7.992188 19.847656 Z M 7.992188 19.847656 "/>
<path style=" stroke:none;fill-rule:nonzero;fill:rgb(0%,31.372549%,75.294118%);fill-opacity:1;" d="M 18.855469 19.847656 L 12.007812 19.847656 C 11.46875 19.847656 11.019531 19.402344 11.019531 18.855469 L 11.019531 9.019531 C 11.019531 8.472656 11.46875 8.03125 12.007812 8.03125 L 18.863281 8.03125 C 19.402344 8.03125 19.847656 8.472656 19.847656 9.019531 L 19.847656 18.855469 C 19.847656 19.402344 19.402344 19.847656 18.855469 19.847656 Z M 18.855469 19.847656 "/>
<path style=" stroke:none;fill-rule:nonzero;fill:rgb(0%,42.745098%,100%);fill-opacity:1;" d="M 18.855469 5.574219 L 12.007812 5.574219 C 11.46875 5.574219 11.019531 5.128906 11.019531 4.585938 L 11.019531 1.136719 C 11.019531 0.597656 11.46875 0.152344 12.007812 0.152344 L 18.863281 0.152344 C 19.402344 0.152344 19.847656 0.597656 19.847656 1.136719 L 19.847656 4.585938 C 19.847656 5.128906 19.402344 5.574219 18.855469 5.574219 Z M 18.855469 5.574219 "/>
</g>
</svg>
