<?xml version="1.0" encoding="UTF-8"?>
<svg xmlns="http://www.w3.org/2000/svg" xmlns:xlink="http://www.w3.org/1999/xlink" width="20px" height="20px" viewBox="0 0 20 20" version="1.1">
<g id="surface1">
<path style=" stroke:none;fill-rule:nonzero;fill:rgb(95.686275%,23.137255%,23.137255%);fill-opacity:1;" d="M 5.347656 17.757812 C 5.347656 18.394531 4.828125 18.910156 4.191406 18.910156 C 3.550781 18.910156 3.035156 18.394531 3.035156 17.757812 C 3.035156 17.121094 3.550781 16.601562 4.191406 16.601562 C 4.828125 16.601562 5.347656 17.121094 5.347656 17.757812 Z M 5.347656 17.757812 "/>
<path style=" stroke:none;fill-rule:nonzero;fill:rgb(0%,0%,0%);fill-opacity:1;" d="M 4.183594 19.128906 C 3.949219 19.128906 3.714844 19.066406 3.503906 18.945312 C 3.1875 18.761719 2.957031 18.464844 2.863281 18.113281 C 2.769531 17.757812 2.816406 17.386719 3.003906 17.070312 C 3.1875 16.753906 3.480469 16.523438 3.832031 16.429688 C 4.191406 16.332031 4.558594 16.382812 4.878906 16.566406 C 5.53125 16.949219 5.757812 17.785156 5.378906 18.441406 C 5.195312 18.761719 4.898438 18.988281 4.542969 19.085938 C 4.425781 19.113281 4.308594 19.128906 4.183594 19.128906 Z M 4.191406 16.820312 C 3.867188 16.820312 3.554688 16.988281 3.382812 17.289062 C 3.121094 17.734375 3.277344 18.308594 3.722656 18.566406 C 3.941406 18.6875 4.191406 18.722656 4.429688 18.660156 C 4.671875 18.59375 4.878906 18.4375 5 18.226562 C 5.257812 17.777344 5.105469 17.203125 4.660156 16.949219 C 4.507812 16.863281 4.347656 16.820312 4.191406 16.820312 Z M 4.191406 16.820312 "/>
<path style=" stroke:none;fill-rule:nonzero;fill:rgb(23.529412%,96.862745%,94.901961%);fill-opacity:1;" d="M 16.964844 2.242188 C 16.964844 2.878906 16.445312 3.398438 15.808594 3.398438 C 15.171875 3.398438 14.652344 2.878906 14.652344 2.242188 C 14.652344 1.605469 15.171875 1.089844 15.808594 1.089844 C 16.445312 1.089844 16.964844 1.605469 16.964844 2.242188 Z M 16.964844 2.242188 "/>
<path style=" stroke:none;fill-rule:nonzero;fill:rgb(97.647059%,76.078431%,22.745098%);fill-opacity:1;" d="M 6.261719 5.820312 C 6.585938 6.011719 6.988281 5.992188 7.304688 5.785156 C 7.371094 5.746094 7.433594 5.707031 7.5 5.667969 C 7.566406 5.628906 7.632812 5.597656 7.699219 5.558594 C 8.035156 5.386719 8.246094 5.050781 8.246094 4.671875 C 8.246094 4.125 8.695312 3.683594 9.242188 3.683594 L 10.757812 3.683594 C 11.304688 3.683594 11.753906 4.125 11.753906 4.671875 C 11.753906 5.042969 11.957031 5.386719 12.289062 5.550781 C 12.433594 5.625 12.574219 5.707031 12.707031 5.796875 C 13.019531 6 13.414062 6.003906 13.738281 5.820312 C 14.214844 5.546875 14.820312 5.707031 15.09375 6.183594 L 15.855469 7.496094 C 16.128906 7.96875 15.964844 8.578125 15.484375 8.851562 C 15.167969 9.035156 14.976562 9.386719 14.996094 9.753906 C 15 9.917969 15 10.078125 14.996094 10.238281 C 14.976562 10.613281 15.167969 10.960938 15.484375 11.148438 L 15.492188 11.148438 C 15.964844 11.421875 16.128906 12.03125 15.855469 12.5 L 15.09375 13.816406 C 14.820312 14.292969 14.214844 14.453125 13.738281 14.179688 C 13.410156 13.988281 13.011719 14.007812 12.695312 14.214844 C 12.628906 14.253906 12.566406 14.292969 12.5 14.332031 C 12.433594 14.371094 12.367188 14.402344 12.300781 14.441406 C 11.964844 14.613281 11.753906 14.949219 11.753906 15.328125 C 11.753906 15.875 11.304688 16.316406 10.757812 16.316406 L 9.242188 16.316406 C 8.695312 16.316406 8.246094 15.875 8.246094 15.328125 C 8.246094 14.957031 8.042969 14.613281 7.710938 14.449219 C 7.566406 14.375 7.425781 14.292969 7.292969 14.203125 C 6.980469 14 6.585938 13.996094 6.261719 14.179688 C 5.785156 14.453125 5.179688 14.292969 4.90625 13.816406 L 4.144531 12.503906 C 3.871094 12.03125 4.035156 11.421875 4.507812 11.148438 L 4.515625 11.148438 C 4.832031 10.964844 5.023438 10.613281 5.003906 10.246094 C 4.996094 10.082031 4.996094 9.921875 5.003906 9.761719 C 5.023438 9.386719 4.832031 9.039062 4.515625 8.851562 L 4.507812 8.851562 C 4.035156 8.578125 3.871094 7.96875 4.144531 7.5 L 4.90625 6.183594 C 5.179688 5.707031 5.785156 5.546875 6.261719 5.820312 Z M 7.566406 11.40625 C 8.34375 12.746094 10.0625 13.207031 11.40625 12.433594 C 12.746094 11.65625 13.207031 9.9375 12.433594 8.59375 C 11.65625 7.253906 9.9375 6.792969 8.59375 7.566406 C 7.253906 8.34375 6.792969 10.0625 7.566406 11.40625 Z M 7.566406 11.40625 "/>
<path style=" stroke:none;fill-rule:nonzero;fill:rgb(0%,0%,0%);fill-opacity:1;" d="M 10.757812 16.539062 L 9.242188 16.539062 C 8.570312 16.539062 8.03125 15.992188 8.03125 15.328125 C 8.03125 15.039062 7.867188 14.777344 7.613281 14.644531 C 7.460938 14.566406 7.316406 14.480469 7.171875 14.386719 C 6.929688 14.230469 6.625 14.222656 6.371094 14.371094 C 5.792969 14.703125 5.050781 14.503906 4.714844 13.921875 L 3.957031 12.613281 C 3.792969 12.332031 3.753906 12.007812 3.839844 11.695312 C 3.921875 11.382812 4.125 11.121094 4.402344 10.960938 C 4.652344 10.816406 4.800781 10.542969 4.789062 10.257812 C 4.777344 10.082031 4.777344 9.917969 4.789062 9.75 C 4.800781 9.457031 4.652344 9.183594 4.402344 9.039062 C 4.402344 9.039062 4.398438 9.039062 4.398438 9.039062 C 4.117188 8.878906 3.921875 8.617188 3.839844 8.304688 C 3.753906 7.992188 3.792969 7.667969 3.957031 7.386719 L 4.714844 6.078125 C 4.878906 5.792969 5.140625 5.589844 5.453125 5.507812 C 5.765625 5.425781 6.089844 5.46875 6.371094 5.628906 C 6.625 5.777344 6.9375 5.765625 7.1875 5.601562 C 7.253906 5.558594 7.320312 5.519531 7.386719 5.480469 C 7.460938 5.441406 7.527344 5.402344 7.601562 5.367188 C 7.863281 5.230469 8.03125 4.960938 8.03125 4.671875 C 8.03125 4.007812 8.570312 3.460938 9.242188 3.460938 L 10.757812 3.460938 C 11.421875 3.460938 11.96875 4.007812 11.96875 4.671875 C 11.96875 4.960938 12.132812 5.222656 12.386719 5.355469 C 12.539062 5.433594 12.683594 5.519531 12.828125 5.613281 C 13.070312 5.769531 13.375 5.777344 13.628906 5.628906 C 13.632812 5.628906 13.632812 5.628906 13.636719 5.625 C 13.910156 5.46875 14.234375 5.429688 14.546875 5.507812 C 14.859375 5.589844 15.121094 5.792969 15.285156 6.078125 L 16.042969 7.386719 C 16.207031 7.667969 16.246094 7.992188 16.160156 8.304688 C 16.078125 8.617188 15.875 8.878906 15.597656 9.039062 C 15.347656 9.183594 15.199219 9.457031 15.210938 9.742188 C 15.222656 9.910156 15.222656 10.082031 15.210938 10.25 C 15.199219 10.542969 15.347656 10.816406 15.597656 10.960938 C 16.175781 11.292969 16.371094 12.035156 16.042969 12.613281 L 15.285156 13.929688 C 14.949219 14.503906 14.207031 14.703125 13.628906 14.371094 C 13.382812 14.222656 13.0625 14.234375 12.8125 14.398438 C 12.746094 14.441406 12.679688 14.480469 12.613281 14.519531 C 12.539062 14.558594 12.472656 14.597656 12.398438 14.632812 C 12.132812 14.769531 11.96875 15.039062 11.96875 15.328125 C 11.96875 15.992188 11.421875 16.539062 10.757812 16.539062 Z M 6.757812 13.828125 C 6.980469 13.828125 7.210938 13.890625 7.410156 14.019531 C 7.539062 14.101562 7.671875 14.179688 7.8125 14.253906 C 8.21875 14.457031 8.472656 14.871094 8.472656 15.328125 C 8.472656 15.753906 8.816406 16.097656 9.242188 16.097656 L 10.757812 16.097656 C 11.183594 16.097656 11.527344 15.753906 11.527344 15.328125 C 11.527344 14.871094 11.785156 14.457031 12.199219 14.246094 C 12.265625 14.214844 12.328125 14.179688 12.394531 14.140625 C 12.457031 14.105469 12.515625 14.066406 12.578125 14.027344 C 12.96875 13.777344 13.453125 13.761719 13.851562 13.988281 C 14.21875 14.203125 14.691406 14.074219 14.90625 13.707031 L 15.664062 12.394531 C 15.765625 12.214844 15.792969 12.007812 15.742188 11.808594 C 15.6875 11.605469 15.558594 11.441406 15.378906 11.339844 C 14.984375 11.109375 14.753906 10.6875 14.777344 10.230469 C 14.78125 10.074219 14.78125 9.917969 14.777344 9.765625 C 14.753906 9.3125 14.984375 8.890625 15.378906 8.660156 C 15.558594 8.558594 15.6875 8.394531 15.742188 8.191406 C 15.792969 7.992188 15.765625 7.785156 15.664062 7.605469 L 14.90625 6.292969 C 14.800781 6.117188 14.632812 5.988281 14.4375 5.933594 C 14.234375 5.882812 14.027344 5.910156 13.851562 6.011719 C 13.84375 6.011719 13.84375 6.011719 13.839844 6.015625 C 13.449219 6.238281 12.96875 6.222656 12.589844 5.980469 C 12.460938 5.898438 12.328125 5.820312 12.1875 5.746094 C 11.78125 5.542969 11.527344 5.128906 11.527344 4.671875 C 11.527344 4.246094 11.183594 3.902344 10.757812 3.902344 L 9.242188 3.902344 C 8.816406 3.902344 8.472656 4.246094 8.472656 4.671875 C 8.472656 5.128906 8.214844 5.542969 7.800781 5.753906 C 7.734375 5.785156 7.671875 5.820312 7.613281 5.859375 C 7.542969 5.894531 7.484375 5.933594 7.421875 5.972656 C 7.03125 6.222656 6.546875 6.238281 6.148438 6.011719 C 5.972656 5.910156 5.765625 5.882812 5.5625 5.933594 C 5.367188 5.988281 5.199219 6.117188 5.09375 6.292969 L 4.335938 7.605469 C 4.234375 7.785156 4.207031 7.992188 4.257812 8.191406 C 4.3125 8.394531 4.441406 8.558594 4.621094 8.660156 C 4.621094 8.660156 4.625 8.660156 4.625 8.667969 C 5.015625 8.894531 5.246094 9.3125 5.222656 9.769531 C 5.21875 9.921875 5.21875 10.078125 5.222656 10.234375 C 5.246094 10.6875 5.011719 11.109375 4.621094 11.339844 C 4.253906 11.550781 4.125 12.027344 4.335938 12.394531 L 5.09375 13.707031 C 5.308594 14.074219 5.78125 14.203125 6.148438 13.988281 C 6.339844 13.878906 6.546875 13.828125 6.757812 13.828125 Z M 10.003906 13.03125 C 9.742188 13.03125 9.476562 12.992188 9.21875 12.925781 C 8.4375 12.710938 7.785156 12.214844 7.378906 11.511719 C 6.976562 10.816406 6.871094 10 7.074219 9.21875 C 7.289062 8.4375 7.785156 7.785156 8.488281 7.378906 C 9.183594 6.976562 10 6.871094 10.78125 7.074219 C 11.5625 7.289062 12.214844 7.785156 12.621094 8.488281 C 13.023438 9.183594 13.128906 10 12.925781 10.78125 C 12.710938 11.5625 12.214844 12.214844 11.511719 12.621094 C 11.050781 12.890625 10.53125 13.03125 10.003906 13.03125 Z M 9.996094 7.410156 C 9.546875 7.410156 9.105469 7.527344 8.707031 7.757812 C 8.109375 8.101562 7.679688 8.660156 7.5 9.332031 C 7.320312 10 7.410156 10.699219 7.757812 11.292969 C 8.101562 11.890625 8.660156 12.320312 9.332031 12.5 C 10 12.679688 10.699219 12.589844 11.292969 12.242188 C 11.890625 11.898438 12.320312 11.339844 12.5 10.667969 C 12.679688 10 12.589844 9.300781 12.242188 8.707031 C 11.898438 8.109375 11.339844 7.679688 10.667969 7.5 C 10.445312 7.4375 10.222656 7.410156 9.996094 7.410156 Z M 9.996094 7.410156 "/>
<path style=" stroke:none;fill-rule:nonzero;fill:rgb(0%,0%,0%);fill-opacity:1;" d="M 1.914062 15.441406 C 1.839844 15.441406 1.773438 15.40625 1.730469 15.339844 C -0.277344 12.222656 -0.375 8.292969 1.480469 5.078125 C 2.789062 2.800781 4.917969 1.171875 7.457031 0.496094 C 9.996094 -0.183594 12.644531 0.160156 14.921875 1.480469 C 15.027344 1.539062 15.0625 1.675781 15 1.773438 C 14.9375 1.878906 14.804688 1.914062 14.703125 1.859375 C 12.527344 0.601562 9.996094 0.269531 7.566406 0.914062 C 5.140625 1.566406 3.113281 3.125 1.859375 5.296875 C 0.0820312 8.363281 0.179688 12.125 2.097656 15.101562 C 2.164062 15.207031 2.136719 15.339844 2.03125 15.40625 C 1.996094 15.429688 1.957031 15.441406 1.914062 15.441406 Z M 1.914062 15.441406 "/>
<path style=" stroke:none;fill-rule:nonzero;fill:rgb(0%,0%,0%);fill-opacity:1;" d="M 9.984375 19.84375 C 8.28125 19.84375 6.597656 19.398438 5.078125 18.519531 C 4.976562 18.460938 4.9375 18.324219 5 18.226562 C 5.0625 18.121094 5.195312 18.085938 5.296875 18.140625 C 7.472656 19.398438 10.003906 19.730469 12.433594 19.085938 C 14.859375 18.433594 16.886719 16.875 18.140625 14.703125 C 19.742188 11.925781 19.832031 8.566406 18.371094 5.707031 C 18.316406 5.601562 18.359375 5.46875 18.464844 5.414062 C 18.570312 5.363281 18.707031 5.402344 18.761719 5.507812 C 20.285156 8.5 20.199219 12.015625 18.519531 14.921875 C 17.210938 17.199219 15.082031 18.828125 12.542969 19.503906 C 11.703125 19.730469 10.835938 19.84375 9.984375 19.84375 Z M 9.984375 19.84375 "/>
<path style=" stroke:none;fill-rule:nonzero;fill:rgb(0%,0%,0%);fill-opacity:1;" d="M 15.808594 3.617188 C 15.570312 3.617188 15.335938 3.554688 15.121094 3.433594 C 14.804688 3.246094 14.582031 2.953125 14.488281 2.601562 C 14.390625 2.242188 14.4375 1.875 14.621094 1.558594 C 15 0.902344 15.84375 0.675781 16.496094 1.054688 C 16.8125 1.238281 17.042969 1.535156 17.136719 1.886719 C 17.230469 2.242188 17.183594 2.613281 16.996094 2.929688 C 16.8125 3.246094 16.519531 3.476562 16.167969 3.570312 C 16.050781 3.597656 15.925781 3.617188 15.808594 3.617188 Z M 15.816406 1.3125 C 15.492188 1.3125 15.171875 1.480469 15 1.773438 C 14.878906 1.992188 14.84375 2.242188 14.90625 2.484375 C 14.972656 2.730469 15.128906 2.929688 15.339844 3.050781 C 15.792969 3.308594 16.363281 3.160156 16.617188 2.710938 C 16.746094 2.496094 16.78125 2.242188 16.714844 2.003906 C 16.652344 1.757812 16.496094 1.558594 16.277344 1.433594 C 16.132812 1.351562 15.972656 1.3125 15.816406 1.3125 Z M 15.816406 1.3125 "/>
<path style=" stroke:none;fill-rule:nonzero;fill:rgb(0%,0%,0%);fill-opacity:1;" d="M 15.808594 3.617188 C 15.570312 3.617188 15.335938 3.554688 15.121094 3.433594 C 14.804688 3.246094 14.582031 2.953125 14.488281 2.601562 C 14.390625 2.242188 14.4375 1.875 14.621094 1.558594 C 15 0.902344 15.84375 0.675781 16.496094 1.054688 C 16.8125 1.238281 17.042969 1.535156 17.136719 1.886719 C 17.230469 2.242188 17.183594 2.613281 16.996094 2.929688 C 16.8125 3.246094 16.519531 3.476562 16.167969 3.570312 C 16.050781 3.597656 15.925781 3.617188 15.808594 3.617188 Z M 15.816406 1.3125 C 15.492188 1.3125 15.171875 1.480469 15 1.773438 C 14.878906 1.992188 14.84375 2.242188 14.90625 2.484375 C 14.972656 2.730469 15.128906 2.929688 15.339844 3.050781 C 15.792969 3.308594 16.363281 3.160156 16.617188 2.710938 C 16.746094 2.496094 16.78125 2.242188 16.714844 2.003906 C 16.652344 1.757812 16.496094 1.558594 16.277344 1.433594 C 16.132812 1.351562 15.972656 1.3125 15.816406 1.3125 Z M 15.816406 1.3125 "/>
</g>
</svg>
