<?xml version="1.0" encoding="UTF-8"?>
<svg xmlns="http://www.w3.org/2000/svg" xmlns:xlink="http://www.w3.org/1999/xlink" width="20px" height="20px" viewBox="0 0 20 20" version="1.1">
<g id="surface1">
<path style=" stroke:none;fill-rule:nonzero;fill:rgb(67.843137%,67.843137%,67.843137%);fill-opacity:1;" d="M 10 7.578125 L 9.566406 7.578125 L 9.566406 6.679688 C 9.566406 6.015625 10.105469 5.46875 10.777344 5.46875 L 18.632812 5.46875 C 19.0625 5.46875 19.410156 5.121094 19.410156 4.691406 C 19.410156 4.269531 19.0625 3.921875 18.632812 3.921875 L 6.679688 3.921875 L 6.679688 3.480469 L 18.632812 3.480469 C 19.300781 3.480469 19.847656 4.027344 19.847656 4.691406 C 19.847656 5.363281 19.300781 5.910156 18.632812 5.910156 L 10.777344 5.910156 C 10.347656 5.910156 10 6.253906 10 6.679688 Z M 10 7.578125 "/>
<path style=" stroke:none;fill-rule:nonzero;fill:rgb(23.137255%,23.137255%,23.137255%);fill-opacity:1;" d="M 19.15625 17.070312 L 0.84375 17.070312 C 0.582031 17.070312 0.375 16.859375 0.375 16.601562 L 0.375 8.046875 C 0.375 7.789062 0.582031 7.578125 0.84375 7.578125 L 19.15625 7.578125 C 19.417969 7.578125 19.625 7.789062 19.625 8.046875 L 19.625 16.601562 C 19.625 16.859375 19.417969 17.070312 19.15625 17.070312 Z M 19.15625 17.070312 "/>
<path style=" stroke:none;fill-rule:nonzero;fill:rgb(23.137255%,23.137255%,23.137255%);fill-opacity:1;" d="M 19.15625 17.289062 L 0.84375 17.289062 C 0.464844 17.289062 0.152344 16.980469 0.152344 16.601562 L 0.152344 8.046875 C 0.152344 7.667969 0.464844 7.359375 0.84375 7.359375 L 19.15625 7.359375 C 19.535156 7.359375 19.847656 7.667969 19.847656 8.046875 L 19.847656 16.601562 C 19.847656 16.980469 19.535156 17.289062 19.15625 17.289062 Z M 0.84375 7.796875 C 0.703125 7.796875 0.589844 7.90625 0.589844 8.046875 L 0.589844 16.601562 C 0.589844 16.734375 0.703125 16.847656 0.84375 16.847656 L 19.15625 16.847656 C 19.296875 16.847656 19.410156 16.734375 19.410156 16.601562 L 19.410156 8.046875 C 19.410156 7.90625 19.296875 7.796875 19.15625 7.796875 Z M 0.84375 7.796875 "/>
<path style=" stroke:none;fill-rule:nonzero;fill:rgb(67.843137%,67.843137%,67.843137%);fill-opacity:1;" d="M 3.320312 15.902344 L 1.851562 15.902344 C 1.730469 15.902344 1.628906 15.804688 1.628906 15.6875 L 1.628906 14.214844 C 1.628906 14.089844 1.730469 13.996094 1.851562 13.996094 L 3.320312 13.996094 C 3.441406 13.996094 3.542969 14.089844 3.542969 14.214844 L 3.542969 15.6875 C 3.542969 15.804688 3.441406 15.902344 3.320312 15.902344 Z M 3.320312 15.902344 "/>
<path style=" stroke:none;fill-rule:nonzero;fill:rgb(67.843137%,67.843137%,67.843137%);fill-opacity:1;" d="M 18.148438 15.902344 L 16.679688 15.902344 C 16.558594 15.902344 16.457031 15.804688 16.457031 15.6875 L 16.457031 14.214844 C 16.457031 14.089844 16.558594 13.996094 16.679688 13.996094 L 18.148438 13.996094 C 18.269531 13.996094 18.371094 14.089844 18.371094 14.214844 L 18.371094 15.6875 C 18.371094 15.804688 18.269531 15.902344 18.148438 15.902344 Z M 18.148438 15.902344 "/>
<path style=" stroke:none;fill-rule:nonzero;fill:rgb(67.843137%,67.843137%,67.843137%);fill-opacity:1;" d="M 15.183594 15.902344 L 4.816406 15.902344 C 4.691406 15.902344 4.597656 15.804688 4.597656 15.6875 L 4.597656 14.214844 C 4.597656 14.089844 4.691406 13.996094 4.816406 13.996094 L 15.183594 13.996094 C 15.308594 13.996094 15.402344 14.089844 15.402344 14.214844 L 15.402344 15.6875 C 15.402344 15.804688 15.308594 15.902344 15.183594 15.902344 Z M 15.183594 15.902344 "/>
<path style=" stroke:none;fill-rule:nonzero;fill:rgb(67.843137%,67.843137%,67.843137%);fill-opacity:1;" d="M 3.320312 13.277344 L 1.851562 13.277344 C 1.730469 13.277344 1.628906 13.179688 1.628906 13.058594 L 1.628906 11.585938 C 1.628906 11.46875 1.730469 11.367188 1.851562 11.367188 L 3.320312 11.367188 C 3.441406 11.367188 3.542969 11.46875 3.542969 11.585938 L 3.542969 13.058594 C 3.542969 13.179688 3.441406 13.277344 3.320312 13.277344 Z M 3.320312 13.277344 "/>
<path style=" stroke:none;fill-rule:nonzero;fill:rgb(67.843137%,67.843137%,67.843137%);fill-opacity:1;" d="M 6.289062 13.277344 L 4.816406 13.277344 C 4.691406 13.277344 4.597656 13.179688 4.597656 13.058594 L 4.597656 11.585938 C 4.597656 11.46875 4.691406 11.367188 4.816406 11.367188 L 6.289062 11.367188 C 6.40625 11.367188 6.507812 11.46875 6.507812 11.585938 L 6.507812 13.058594 C 6.507812 13.179688 6.40625 13.277344 6.289062 13.277344 Z M 6.289062 13.277344 "/>
<path style=" stroke:none;fill-rule:nonzero;fill:rgb(67.843137%,67.843137%,67.843137%);fill-opacity:1;" d="M 9.253906 13.277344 L 7.777344 13.277344 C 7.660156 13.277344 7.5625 13.179688 7.5625 13.058594 L 7.5625 11.585938 C 7.5625 11.46875 7.660156 11.367188 7.777344 11.367188 L 9.253906 11.367188 C 9.375 11.367188 9.46875 11.46875 9.46875 11.585938 L 9.46875 13.058594 C 9.46875 13.179688 9.375 13.277344 9.253906 13.277344 Z M 9.253906 13.277344 "/>
<path style=" stroke:none;fill-rule:nonzero;fill:rgb(67.843137%,67.843137%,67.843137%);fill-opacity:1;" d="M 12.222656 13.277344 L 10.746094 13.277344 C 10.625 13.277344 10.53125 13.179688 10.53125 13.058594 L 10.53125 11.585938 C 10.53125 11.46875 10.625 11.367188 10.746094 11.367188 L 12.222656 11.367188 C 12.339844 11.367188 12.4375 11.46875 12.4375 11.585938 L 12.4375 13.058594 C 12.4375 13.179688 12.339844 13.277344 12.222656 13.277344 Z M 12.222656 13.277344 "/>
<path style=" stroke:none;fill-rule:nonzero;fill:rgb(67.843137%,67.843137%,67.843137%);fill-opacity:1;" d="M 15.183594 13.277344 L 13.710938 13.277344 C 13.589844 13.277344 13.492188 13.179688 13.492188 13.058594 L 13.492188 11.585938 C 13.492188 11.46875 13.589844 11.367188 13.710938 11.367188 L 15.183594 11.367188 C 15.308594 11.367188 15.402344 11.46875 15.402344 11.585938 L 15.402344 13.058594 C 15.402344 13.179688 15.308594 13.277344 15.183594 13.277344 Z M 15.183594 13.277344 "/>
<path style=" stroke:none;fill-rule:nonzero;fill:rgb(67.843137%,67.843137%,67.843137%);fill-opacity:1;" d="M 18.148438 13.277344 L 16.679688 13.277344 C 16.558594 13.277344 16.457031 13.179688 16.457031 13.058594 L 16.457031 11.585938 C 16.457031 11.46875 16.558594 11.367188 16.679688 11.367188 L 18.148438 11.367188 C 18.269531 11.367188 18.371094 11.46875 18.371094 11.585938 L 18.371094 13.058594 C 18.371094 13.179688 18.269531 13.277344 18.148438 13.277344 Z M 18.148438 13.277344 "/>
<path style=" stroke:none;fill-rule:nonzero;fill:rgb(67.843137%,67.843137%,67.843137%);fill-opacity:1;" d="M 3.320312 10.652344 L 1.851562 10.652344 C 1.730469 10.652344 1.628906 10.550781 1.628906 10.433594 L 1.628906 8.960938 C 1.628906 8.839844 1.730469 8.746094 1.851562 8.746094 L 3.320312 8.746094 C 3.441406 8.746094 3.542969 8.839844 3.542969 8.960938 L 3.542969 10.433594 C 3.542969 10.550781 3.441406 10.652344 3.320312 10.652344 Z M 3.320312 10.652344 "/>
<path style=" stroke:none;fill-rule:nonzero;fill:rgb(67.843137%,67.843137%,67.843137%);fill-opacity:1;" d="M 6.289062 10.652344 L 4.816406 10.652344 C 4.691406 10.652344 4.597656 10.550781 4.597656 10.433594 L 4.597656 8.960938 C 4.597656 8.839844 4.691406 8.746094 4.816406 8.746094 L 6.289062 8.746094 C 6.40625 8.746094 6.507812 8.839844 6.507812 8.960938 L 6.507812 10.433594 C 6.507812 10.550781 6.40625 10.652344 6.289062 10.652344 Z M 6.289062 10.652344 "/>
<path style=" stroke:none;fill-rule:nonzero;fill:rgb(67.843137%,67.843137%,67.843137%);fill-opacity:1;" d="M 9.253906 10.652344 L 7.777344 10.652344 C 7.660156 10.652344 7.5625 10.550781 7.5625 10.433594 L 7.5625 8.960938 C 7.5625 8.839844 7.660156 8.746094 7.777344 8.746094 L 9.253906 8.746094 C 9.375 8.746094 9.46875 8.839844 9.46875 8.960938 L 9.46875 10.433594 C 9.46875 10.550781 9.375 10.652344 9.253906 10.652344 Z M 9.253906 10.652344 "/>
<path style=" stroke:none;fill-rule:nonzero;fill:rgb(67.843137%,67.843137%,67.843137%);fill-opacity:1;" d="M 12.222656 10.652344 L 10.746094 10.652344 C 10.625 10.652344 10.53125 10.550781 10.53125 10.433594 L 10.53125 8.960938 C 10.53125 8.839844 10.625 8.746094 10.746094 8.746094 L 12.222656 8.746094 C 12.339844 8.746094 12.4375 8.839844 12.4375 8.960938 L 12.4375 10.433594 C 12.4375 10.550781 12.339844 10.652344 12.222656 10.652344 Z M 12.222656 10.652344 "/>
<path style=" stroke:none;fill-rule:nonzero;fill:rgb(67.843137%,67.843137%,67.843137%);fill-opacity:1;" d="M 15.183594 10.652344 L 13.710938 10.652344 C 13.589844 10.652344 13.492188 10.550781 13.492188 10.433594 L 13.492188 8.960938 C 13.492188 8.839844 13.589844 8.746094 13.710938 8.746094 L 15.183594 8.746094 C 15.308594 8.746094 15.402344 8.839844 15.402344 8.960938 L 15.402344 10.433594 C 15.402344 10.550781 15.308594 10.652344 15.183594 10.652344 Z M 15.183594 10.652344 "/>
<path style=" stroke:none;fill-rule:nonzero;fill:rgb(67.843137%,67.843137%,67.843137%);fill-opacity:1;" d="M 18.148438 10.652344 L 16.679688 10.652344 C 16.558594 10.652344 16.457031 10.550781 16.457031 10.433594 L 16.457031 8.960938 C 16.457031 8.839844 16.558594 8.746094 16.679688 8.746094 L 18.148438 8.746094 C 18.269531 8.746094 18.371094 8.839844 18.371094 8.960938 L 18.371094 10.433594 C 18.371094 10.550781 18.269531 10.652344 18.148438 10.652344 Z M 18.148438 10.652344 "/>
<path style=" stroke:none;fill-rule:nonzero;fill:rgb(23.137255%,23.137255%,23.137255%);fill-opacity:1;" d="M 6.082031 4.476562 L 4.730469 4.476562 L 4.730469 2.929688 L 6.082031 2.929688 C 6.507812 2.929688 6.851562 3.277344 6.851562 3.699219 C 6.851562 4.128906 6.507812 4.476562 6.082031 4.476562 Z M 6.082031 4.476562 "/>
<path style=" stroke:none;fill-rule:nonzero;fill:rgb(23.137255%,23.137255%,23.137255%);fill-opacity:1;" d="M 6.082031 4.691406 L 4.730469 4.691406 C 4.609375 4.691406 4.515625 4.59375 4.515625 4.476562 L 4.515625 2.929688 C 4.515625 2.8125 4.609375 2.710938 4.730469 2.710938 L 6.082031 2.710938 C 6.628906 2.710938 7.070312 3.160156 7.070312 3.699219 C 7.070312 4.246094 6.628906 4.691406 6.082031 4.691406 Z M 4.949219 4.253906 L 6.082031 4.253906 C 6.390625 4.253906 6.636719 4.007812 6.636719 3.699219 C 6.636719 3.398438 6.390625 3.152344 6.082031 3.152344 L 4.949219 3.152344 Z M 4.949219 4.253906 "/>
<path style=" stroke:none;fill-rule:nonzero;fill:rgb(23.137255%,23.137255%,23.137255%);fill-opacity:1;" d="M 3.945312 3.480469 L 4.730469 3.480469 L 4.730469 3.921875 L 3.945312 3.921875 Z M 3.945312 3.480469 "/>
</g>
</svg>
