<?xml version="1.0" encoding="UTF-8"?>
<svg xmlns="http://www.w3.org/2000/svg" xmlns:xlink="http://www.w3.org/1999/xlink" width="20px" height="20px" viewBox="0 0 20 20" version="1.1">
<g id="surface1">
<path style=" stroke:none;fill-rule:nonzero;fill:rgb(85.098039%,89.803922%,100%);fill-opacity:1;" d="M 13.566406 2.96875 L 15.582031 2.96875 C 16.054688 2.96875 16.433594 3.355469 16.433594 3.824219 L 16.433594 18.59375 C 16.433594 19.0625 16.054688 19.449219 15.582031 19.449219 L 4.417969 19.449219 C 3.945312 19.449219 3.566406 19.0625 3.566406 18.59375 L 3.566406 3.824219 C 3.566406 3.355469 3.945312 2.96875 4.417969 2.96875 Z M 13.566406 2.96875 "/>
<path style=" stroke:none;fill-rule:nonzero;fill:rgb(35.294118%,45.098039%,50.196078%);fill-opacity:1;" d="M 6.890625 12.75 L 5.792969 12.75 C 5.507812 12.75 5.277344 12.523438 5.277344 12.238281 L 5.277344 11.136719 C 5.277344 10.859375 5.507812 10.625 5.792969 10.625 L 6.890625 10.625 C 7.175781 10.625 7.40625 10.859375 7.40625 11.136719 L 7.40625 12.238281 C 7.40625 12.523438 7.175781 12.75 6.890625 12.75 Z M 5.792969 11.070312 C 5.753906 11.070312 5.726562 11.105469 5.726562 11.136719 L 5.726562 12.238281 C 5.726562 12.277344 5.753906 12.308594 5.792969 12.308594 L 6.890625 12.308594 C 6.929688 12.308594 6.957031 12.277344 6.957031 12.238281 L 6.957031 11.136719 C 6.957031 11.105469 6.929688 11.070312 6.890625 11.070312 Z M 5.792969 11.070312 "/>
<path style=" stroke:none;fill-rule:nonzero;fill:rgb(90.196078%,22.745098%,34.117647%);fill-opacity:1;" d="M 15.582031 19.886719 L 4.417969 19.886719 C 3.699219 19.886719 3.121094 19.308594 3.121094 18.59375 L 3.121094 3.824219 C 3.121094 3.109375 3.699219 2.523438 4.417969 2.523438 L 15.582031 2.523438 C 16.300781 2.523438 16.878906 3.109375 16.878906 3.824219 L 16.878906 18.59375 C 16.878906 19.308594 16.300781 19.886719 15.582031 19.886719 Z M 4.417969 3.414062 C 4.191406 3.414062 4.007812 3.597656 4.007812 3.824219 L 4.007812 18.59375 C 4.007812 18.816406 4.191406 19 4.417969 19 L 15.582031 19 C 15.808594 19 15.992188 18.816406 15.992188 18.59375 L 15.992188 3.824219 C 15.992188 3.597656 15.808594 3.414062 15.582031 3.414062 Z M 4.417969 3.414062 "/>
<path style=" stroke:none;fill-rule:nonzero;fill:rgb(35.294118%,45.098039%,50.196078%);fill-opacity:1;" d="M 14.285156 11.070312 L 8.863281 11.070312 C 8.738281 11.070312 8.636719 10.972656 8.636719 10.847656 C 8.636719 10.726562 8.738281 10.628906 8.863281 10.628906 L 14.285156 10.628906 C 14.410156 10.628906 14.503906 10.726562 14.503906 10.847656 C 14.503906 10.972656 14.410156 11.070312 14.285156 11.070312 Z M 14.285156 11.070312 "/>
<path style=" stroke:none;fill-rule:nonzero;fill:rgb(35.294118%,45.098039%,50.196078%);fill-opacity:1;" d="M 11.703125 12.75 L 8.863281 12.75 C 8.738281 12.75 8.636719 12.652344 8.636719 12.527344 C 8.636719 12.40625 8.738281 12.308594 8.863281 12.308594 L 11.703125 12.308594 C 11.824219 12.308594 11.925781 12.40625 11.925781 12.527344 C 11.925781 12.652344 11.824219 12.75 11.703125 12.75 Z M 11.703125 12.75 "/>
<path style=" stroke:none;fill-rule:nonzero;fill:rgb(47.058824%,76.470588%,25.098039%);fill-opacity:1;" d="M 6.171875 8.65625 C 6.105469 8.65625 6.039062 8.621094 5.992188 8.566406 L 5.324219 7.640625 C 5.25 7.542969 5.273438 7.40625 5.375 7.332031 C 5.46875 7.261719 5.609375 7.28125 5.679688 7.382812 L 6.15625 8.03125 L 6.992188 6.640625 C 7.054688 6.535156 7.191406 6.5 7.300781 6.5625 C 7.398438 6.625 7.4375 6.761719 7.371094 6.871094 L 6.367188 8.550781 C 6.328125 8.609375 6.261719 8.648438 6.183594 8.65625 C 6.183594 8.65625 6.175781 8.65625 6.171875 8.65625 Z M 6.171875 8.65625 "/>
<path style=" stroke:none;fill-rule:nonzero;fill:rgb(47.058824%,76.470588%,25.098039%);fill-opacity:1;" d="M 14.285156 6.976562 L 8.863281 6.976562 C 8.738281 6.976562 8.636719 6.875 8.636719 6.753906 C 8.636719 6.628906 8.738281 6.527344 8.863281 6.527344 L 14.285156 6.527344 C 14.410156 6.527344 14.503906 6.628906 14.503906 6.753906 C 14.503906 6.875 14.410156 6.976562 14.285156 6.976562 Z M 14.285156 6.976562 "/>
<path style=" stroke:none;fill-rule:nonzero;fill:rgb(47.058824%,76.470588%,25.098039%);fill-opacity:1;" d="M 11.703125 8.65625 L 8.863281 8.65625 C 8.738281 8.65625 8.636719 8.554688 8.636719 8.433594 C 8.636719 8.308594 8.738281 8.207031 8.863281 8.207031 L 11.703125 8.207031 C 11.824219 8.207031 11.925781 8.308594 11.925781 8.433594 C 11.925781 8.554688 11.824219 8.65625 11.703125 8.65625 Z M 11.703125 8.65625 "/>
<path style=" stroke:none;fill-rule:nonzero;fill:rgb(35.294118%,45.098039%,50.196078%);fill-opacity:1;" d="M 6.890625 17.027344 L 5.792969 17.027344 C 5.507812 17.027344 5.277344 16.796875 5.277344 16.511719 L 5.277344 15.414062 C 5.277344 15.128906 5.507812 14.898438 5.792969 14.898438 L 6.890625 14.898438 C 7.175781 14.898438 7.40625 15.128906 7.40625 15.414062 L 7.40625 16.511719 C 7.40625 16.796875 7.175781 17.027344 6.890625 17.027344 Z M 5.792969 15.347656 C 5.753906 15.347656 5.726562 15.375 5.726562 15.414062 L 5.726562 16.511719 C 5.726562 16.550781 5.753906 16.578125 5.792969 16.578125 L 6.890625 16.578125 C 6.929688 16.578125 6.957031 16.550781 6.957031 16.511719 L 6.957031 15.414062 C 6.957031 15.375 6.929688 15.347656 6.890625 15.347656 Z M 5.792969 15.347656 "/>
<path style=" stroke:none;fill-rule:nonzero;fill:rgb(35.294118%,45.098039%,50.196078%);fill-opacity:1;" d="M 14.285156 15.347656 L 8.863281 15.347656 C 8.738281 15.347656 8.636719 15.246094 8.636719 15.121094 C 8.636719 15 8.738281 14.898438 8.863281 14.898438 L 14.285156 14.898438 C 14.410156 14.898438 14.503906 15 14.503906 15.121094 C 14.503906 15.246094 14.410156 15.347656 14.285156 15.347656 Z M 14.285156 15.347656 "/>
<path style=" stroke:none;fill-rule:nonzero;fill:rgb(35.294118%,45.098039%,50.196078%);fill-opacity:1;" d="M 11.703125 17.027344 L 8.863281 17.027344 C 8.738281 17.027344 8.636719 16.925781 8.636719 16.800781 C 8.636719 16.679688 8.738281 16.578125 8.863281 16.578125 L 11.703125 16.578125 C 11.824219 16.578125 11.925781 16.679688 11.925781 16.800781 C 11.925781 16.925781 11.824219 17.027344 11.703125 17.027344 Z M 11.703125 17.027344 "/>
<path style=" stroke:none;fill-rule:nonzero;fill:rgb(35.294118%,45.098039%,50.196078%);fill-opacity:1;" d="M 11.617188 1.265625 L 11.507812 1.265625 C 11.328125 0.601562 10.71875 0.113281 10 0.113281 C 9.28125 0.113281 8.671875 0.601562 8.492188 1.265625 L 8.382812 1.265625 C 7.304688 1.265625 6.433594 2.144531 6.433594 3.21875 L 6.433594 3.527344 C 6.433594 3.773438 6.628906 3.972656 6.875 3.972656 L 13.125 3.972656 C 13.371094 3.972656 13.566406 3.773438 13.566406 3.527344 L 13.566406 3.21875 C 13.566406 2.144531 12.695312 1.265625 11.617188 1.265625 Z M 11.617188 1.265625 "/>
<path style=" stroke:none;fill-rule:nonzero;fill:rgb(25.882353%,35.686275%,40.784314%);fill-opacity:1;" d="M 10.457031 2.058594 C 10.457031 2.308594 10.25 2.515625 10 2.515625 C 9.75 2.515625 9.542969 2.308594 9.542969 2.058594 C 9.542969 1.808594 9.75 1.601562 10 1.601562 C 10.25 1.601562 10.457031 1.808594 10.457031 2.058594 Z M 10.457031 2.058594 "/>
</g>
</svg>
